<svg xmlns="http://www.w3.org/2000/svg" width="14.011" height="12.25" viewBox="0 0 14.011 12.25">
  <path id="select" d="M-.156-.848-5.988-10.8A1.16,1.16,0,0,0-7-11.375a1.23,1.23,0,0,0-1.036.574l-5.83,9.953A1.168,1.168,0,0,0-12.831.875H-1.166A1.15,1.15,0,0,0-.156-.848Zm-12.406.41,5.538-9.494L-1.438-.437H-12.562ZM-7-3.032a.86.86,0,0,0-.86.86A.861.861,0,0,0-7-1.313a.859.859,0,0,0,.859-.86A.86.86,0,0,0-7-3.032Zm-.656-4.186v2.625A.656.656,0,0,0-7-3.937a.657.657,0,0,0,.656-.656V-7.219A.656.656,0,0,0-7-7.875.656.656,0,0,0-7.656-7.219Z" transform="translate(14.01 11.375)" fill="#ef0606"/>
</svg>
