<svg xmlns="http://www.w3.org/2000/svg" width="15.749" height="12.25" viewBox="0 0 15.749 12.25">
  <path id="Path_11836" data-name="Path 11836" d="M-3.5-5.25A3.5,3.5,0,0,1,0-8.75a3.5,3.5,0,0,1,3.5,3.5A3.5,3.5,0,0,1,0-1.75,3.5,3.5,0,0,1-3.5-5.25ZM0-3.062A2.187,2.187,0,0,0,2.188-5.25,2.187,2.187,0,0,0,0-7.437H-.079A1.089,1.089,0,0,1,0-7,1.752,1.752,0,0,1-1.75-5.25a1.089,1.089,0,0,1-.437-.079v.055A2.192,2.192,0,0,0,0-3.062ZM-5.266-9.171A7.7,7.7,0,0,1,0-11.375a7.7,7.7,0,0,1,5.266,2.2,10.593,10.593,0,0,1,2.54,3.585.87.87,0,0,1,0,.673,11.086,11.086,0,0,1-2.54,3.585A7.694,7.694,0,0,1,0,.875a7.692,7.692,0,0,1-5.266-2.2A11.129,11.129,0,0,1-7.808-4.914a.874.874,0,0,1,0-.673A10.632,10.632,0,0,1-5.266-9.171ZM0-10.062A6.4,6.4,0,0,0-4.372-8.211,9.436,9.436,0,0,0-6.523-5.25,9.72,9.72,0,0,0-4.372-2.289,6.4,6.4,0,0,0,0-.437,6.4,6.4,0,0,0,4.372-2.289,10.177,10.177,0,0,0,6.524-5.25,9.865,9.865,0,0,0,4.372-8.211,6.4,6.4,0,0,0,0-10.062Z" transform="translate(7.875 11.375)" fill="#0e2e47"/>
</svg>
