<svg xmlns="http://www.w3.org/2000/svg" width="17.5" height="14" viewBox="0 0 17.5 14">
  <path id="Path_11833" data-name="Path 11833" d="M-4.629-9.713A7.467,7.467,0,0,1,0-11.375a7.7,7.7,0,0,1,5.266,2.2,10.593,10.593,0,0,1,2.54,3.585.87.87,0,0,1,0,.673A10.842,10.842,0,0,1,5.622-1.676L8.5.577a.656.656,0,1,1-.809,1.034L-8.5-11.077A.656.656,0,0,1-8.61-12a.656.656,0,0,1,.921-.112l3.059,2.4Zm1.069.84,1.258.984A3.5,3.5,0,0,1,0-8.75a3.5,3.5,0,0,1,3.5,3.5,3.479,3.479,0,0,1-.388,1.605L4.583-2.491A10.631,10.631,0,0,0,6.524-5.25,9.865,9.865,0,0,0,4.372-8.211,6.421,6.421,0,0,0,0-10.087,6.031,6.031,0,0,0-3.56-8.873ZM2.048-4.479a2.228,2.228,0,0,0,.139-.8A2.2,2.2,0,0,0,0-7.462c-.019,0-.036.025-.079.025A1.051,1.051,0,0,1,0-7.025a1.77,1.77,0,0,1-.18.8ZM2.305-.916l1.146.9A7.188,7.188,0,0,1,0,.875a7.694,7.694,0,0,1-5.266-2.2A11.135,11.135,0,0,1-7.808-4.914a.874.874,0,0,1,0-.673,10.4,10.4,0,0,1,1.33-2.248l1.031.812A8.776,8.776,0,0,0-6.523-5.275,9.495,9.495,0,0,0-4.372-2.289,6.4,6.4,0,0,0,0-.437,5.817,5.817,0,0,0,2.305-.916ZM-3.5-5.275c0-.055,0-.131.008-.208l1.534,1.209A2.091,2.091,0,0,0-.492-3.142L1.045-1.909A4.5,4.5,0,0,1-.025-1.75a3.521,3.521,0,0,1-3.5-3.525Z" transform="translate(8.75 12.25)" fill="#0e2e47"/>
</svg>
