<svg xmlns="http://www.w3.org/2000/svg" width="11" height="11" viewBox="0 0 11 11">
  <path id="Path_11837" data-name="Path 11837" d="M5.5-9.625A5.5,5.5,0,0,0,0-4.125a5.5,5.5,0,0,0,5.5,5.5,5.5,5.5,0,0,0,5.5-5.5A5.5,5.5,0,0,0,5.5-9.625ZM5.5.344A4.474,4.474,0,0,1,1.031-4.125,4.474,4.474,0,0,1,5.5-8.594,4.474,4.474,0,0,1,9.969-4.125,4.474,4.474,0,0,1,5.5.344Zm.859-2.75H6.016V-4.3A.516.516,0,0,0,5.5-4.812H4.813A.517.517,0,0,0,4.3-4.3a.517.517,0,0,0,.516.516h.172v1.375H4.641a.517.517,0,0,0-.516.516.517.517,0,0,0,.516.516H6.359a.516.516,0,0,0,.516-.516A.515.515,0,0,0,6.359-2.406ZM5.5-5.5a.688.688,0,0,0,.688-.687A.688.688,0,0,0,5.5-6.875a.687.687,0,0,0-.687.688A.687.687,0,0,0,5.5-5.5Z" transform="translate(0 9.625)" fill="#5e748a"/>
</svg>
