<svg xmlns="http://www.w3.org/2000/svg" width="51.234" height="28.058" viewBox="0 0 51.234 28.058">
  <g id="Group_6447" data-name="Group 6447" transform="translate(-741.383 -227.971)">
    <g id="Group_6446" data-name="Group 6446" transform="translate(-5.613 -110.303)">
      <path id="Path_3078" data-name="Path 3078" d="M86.778,11.661v5.571a8.482,8.482,0,0,1-1.138,16.9,8.627,8.627,0,0,1-7.193-3.849,16.01,16.01,0,0,1-2.806,5.306,14.237,14.237,0,0,0,24.211-9.95,14.119,14.119,0,0,0-13.073-13.98" transform="translate(698.38 326.662)" fill="#0e2e47"/>
      <path id="Path_3079" data-name="Path 3079" d="M58.771,34.04a8.482,8.482,0,0,1,1.168-16.9,8.626,8.626,0,0,1,7.193,3.849,16.01,16.01,0,0,1,2.806-5.306,14.236,14.236,0,0,0-24.21,9.95A14.118,14.118,0,0,0,58.771,39.613Z" transform="translate(701.268 326.668)" fill="#0e2e47"/>
      <path id="Path_3080" data-name="Path 3080" d="M83.2,17.241V11.666A14.118,14.118,0,0,0,70.185,25.642a8.536,8.536,0,0,1-7.434,8.4V39.62A14.12,14.12,0,0,0,75.793,25.642a8.535,8.535,0,0,1,7.4-8.4" transform="translate(699.624 326.662)" fill="#0e2e47"/>
    </g>
  </g>
</svg>
