<svg xmlns="http://www.w3.org/2000/svg" width="501.907" height="330.585" viewBox="0 0 501.907 330.585">
  <g id="Group_6469" data-name="Group 6469" transform="translate(-207.214 -1882.225)">
    <path id="Path_9803" data-name="Path 9803" d="M675.512,0S482.549,55.039,384.41,237.092c-19.463,40.777,5.043,91.273,56.939,91.529,24.4-.221,45.8-21.826,45.557-58.7,1.92-44.229-95.424-90.484-208.791-101.605-59.26-7.558-103.508,39.47-103.508,39.47" transform="translate(883 2211.846) rotate(180)" fill="none" stroke="#0e2e47" stroke-width="2" stroke-dasharray="5 5"/>
    <g id="Rocket" transform="translate(508.984 2020.352) rotate(-25)">
      <path id="Path_3164" data-name="Path 3164" d="M1.141,48.845a1.847,1.847,0,0,1-.605-3.007c4.072-4.13,12.488-13.5,16.681-19.7C22.261,18.686,28.1,4.238,29.212,0c0,0,21.207,15.152,5.2,37.48C21.819,55.038,6.929,51.26,1.141,48.845" transform="translate(10.048 0.502)" fill="#e23b34"/>
      <path id="Path_3165" data-name="Path 3165" d="M1.643,49.346l.193-.463a1.342,1.342,0,0,1-.44-2.191C5.488,42.538,13.9,33.173,18.135,26.921A98.381,98.381,0,0,0,25.65,12.568,101.461,101.461,0,0,0,30.2.628L29.714.5l-.291.408s.066.047.2.148a30.993,30.993,0,0,1,7.735,9.065,23.056,23.056,0,0,1,3.026,11.874c-.125,4.625-1.719,9.892-5.878,15.693A33.931,33.931,0,0,1,23.541,47.918a24.735,24.735,0,0,1-21.705.965l-.193.463-.193.462a25.738,25.738,0,0,0,22.578-1.013A34.935,34.935,0,0,0,35.319,38.273c4.257-5.934,5.937-11.413,6.065-16.252A24.052,24.052,0,0,0,38.232,9.635,31.538,31.538,0,0,0,30,.093a.5.5,0,0,0-.776.281,100.915,100.915,0,0,1-4.5,11.789,97.469,97.469,0,0,1-7.427,14.2C13.15,32.5,4.73,41.882.68,45.987a2.348,2.348,0,0,0,.77,3.822Z" transform="translate(9.545 0)" fill="#070805"/>
      <path id="Path_3166" data-name="Path 3166" d="M6.315,0C4.034,2.558,1.914,4.824.392,6.369A1.344,1.344,0,0,0,.833,8.561l-.194.463.194-.463a26.628,26.628,0,0,0,10.114,2.063,23.47,23.47,0,0,0,9.241-1.88C14.063,5.191,9.356,2.1,6.315,0" transform="translate(10.547 40.323)" fill="#df2726"/>
      <path id="Path_3167" data-name="Path 3167" d="M.566,6.275l-.03.03a1.846,1.846,0,0,0,.44,2.929,1.846,1.846,0,0,1-.44-2.929c.01-.009.02-.02.03-.03M.6,6.242a.291.291,0,0,1-.027.027C.581,6.26.589,6.251.6,6.242M.63,6.211.6,6.239.63,6.211m.03-.03L.641,6.2.66,6.181m.031-.033-.017.018.017-.018m.032-.031L.7,6.138l.023-.022m.034-.035-.01.01.01-.01M.79,6.047l-.018.018L.79,6.047m.072-.073L.8,6.037l.062-.064M6.4,0C4.3,2.355,2.341,4.458.867,5.969,2.341,4.458,4.3,2.355,6.4,0h0" transform="translate(10.045 40.035)" fill="#070805"/>
      <path id="Path_3168" data-name="Path 3168" d="M1.334,8.849l-.193.463A27.076,27.076,0,0,0,11.422,11.4a24.013,24.013,0,0,0,9.791-2.071c-.176-.1-.35-.2-.523-.3a23.472,23.472,0,0,1-9.243,1.88A26.639,26.639,0,0,1,1.334,8.849M6.4,0C4.3,2.355,2.341,4.458.866,5.968l0,0L.8,6.036l-.009.009-.018.02L.758,6.08l-.012.012-.023.023L.7,6.138l-.009.009-.017.018-.015.014L.641,6.2l-.012.01L.6,6.239v0c-.009.009-.018.017-.027.027l-.007.007-.03.03A1.845,1.845,0,0,0,.977,9.233a1.786,1.786,0,0,0,.164.079l.193-.463a1.342,1.342,0,0,1-.44-2.191C2.416,5.112,4.536,2.846,6.817.288L6.4,0" transform="translate(10.044 40.035)" fill="#070805"/>
      <path id="Path_3169" data-name="Path 3169" d="M.336,0C.224.126.112.253,0,.378c3.041,2.1,7.748,5.19,13.874,8.743.189-.081.38-.164.57-.251C8.21,5.269,3.422,2.128.336,0" transform="translate(16.863 39.946)" fill="#df2726"/>
      <path id="Path_3170" data-name="Path 3170" d="M.336,0C.224.127.112.252,0,.378H0Q.169.191.337,0Z" transform="translate(16.443 39.658)" fill="#070805"/>
      <path id="Path_3171" data-name="Path 3171" d="M14.858,9.158q-.284.13-.568.251l.523.3c.187-.082.373-.168.562-.257l-.042-.023-.475-.274M.336,0,0,.378.416.666.752.288.336,0" transform="translate(16.445 39.659)" fill="#070805"/>
      <path id="Path_3172" data-name="Path 3172" d="M16.05,25.426l-12.1-4.8,4.76-1.406L2.176,12.982l5.493-1.2S1.76,5.2,0,1.653l15.971,3.27L14.473,0,24.6,5.687l.7-4.293,4.043,6.184Z" transform="translate(0.906 5.159)" fill="#ffd729"/>
      <path id="Path_3173" data-name="Path 3173" d="M16.955,26.474l.185-.466L6.391,21.745l4.2-1.241L4.11,14.319,9.522,13.14,8.947,12.5s-.334-.372-.87-.991A65.109,65.109,0,0,1,1.6,2.937c-.088-.158-.169-.312-.241-.459L.906,2.7l-.1.492L17.6,6.631,16.221,2.1l9.665,5.426L26.494,3.8l3.144,4.809L16.553,26.175l.4.3.185-.466-.185.466.4.3L30.86,8.645,25.918,1.087l-.792,4.859L14.536,0,16.151,5.31,0,2l.456.92c.08.162.168.329.262.5A49.07,49.07,0,0,0,5.231,9.685C6.841,11.654,8.2,13.164,8.2,13.169l.373-.335-.107-.49-6.415,1.4,6.593,6.294L3.321,21.6l13.807,5.477.23-.309Z" transform="translate(0 4.112)" fill="#070805"/>
      <path id="Path_3174" data-name="Path 3174" d="M10.355,14.464,3.493,11.59l2.652-1.065L2.039,5.313s3.012-.051,2.514-.585S0,.17,0,.17L6.813,1.857,7.608,0l3.834,2.529L12.219.277l4.69,5.9Z" transform="translate(9.649 11.934)" fill="#0088ca"/>
      <path id="Path_3175" data-name="Path 3175" d="M10.857,14.965l.194-.462L5.316,12.1l1.518-.61a.5.5,0,0,0,.207-.775L2.935,5.5l-.394.311.009.5c.006,0,.5-.008,1.06-.053.283-.023.583-.055.86-.1a2.532,2.532,0,0,0,.759-.226.766.766,0,0,0,.31-.3.628.628,0,0,0-.007-.6l-.11-.149C5.155,4.6,4.025,3.472,2.946,2.4S.856.315.854.315L.5.671l-.12.486L7.194,2.846a.5.5,0,0,0,.581-.29l.558-1.3,3.333,2.2a.493.493,0,0,0,.437.057.5.5,0,0,0,.313-.311l.48-1.389,3.874,4.874-6.307,7.975.393.311.194-.462-.194.462.394.311L17.8,6.989a.5.5,0,0,0,0-.623L13.114.467a.5.5,0,0,0-.867.148L11.68,2.256,8.386.083A.5.5,0,0,0,7.648.3L7.021,1.77.622.185a.5.5,0,0,0-.474.842S1.162,2.033,2.237,3.106s2.22,2.218,2.452,2.467l.179-.168-.214.118.035.049.179-.166-.214.118.333-.185L4.655,5.16v.363l.333-.185L4.655,5.16l.277.148-.208-.237-.069.089.277.148-.208-.237.069.079-.051-.092-.018.014.069.079-.051-.092a1.913,1.913,0,0,1-.441.114,11.445,11.445,0,0,1-1.151.117c-.356.02-.616.023-.617.024a.5.5,0,0,0-.386.811L5.839,10.81l-2.031.816a.5.5,0,0,0-.007.928l6.862,2.875a.5.5,0,0,0,.588-.153Z" transform="translate(9.146 11.432)" fill="#070805"/>
      <path id="Path_3176" data-name="Path 3176" d="M57.225,49.116c3.1-3.328-8.739-23.565-20.419-35.277C28.693,5.7,23.643,1.887,21.313.316a1.848,1.848,0,0,0-2.535.458L.35,26.4a1.855,1.855,0,0,0,.416,2.586A199.29,199.29,0,0,0,17.884,39.917c13.96,8.025,35.328,13.5,39.341,9.2" transform="translate(13.896 9.174)" fill="#fff"/>
      <path id="Path_3177" data-name="Path 3177" d="M57.726,49.617l.366.342a2.976,2.976,0,0,0,.635-2.15,15.5,15.5,0,0,0-1.232-4.9,55.415,55.415,0,0,0-3.142-6.52,108.982,108.982,0,0,0-16.693-22.4C29.532,5.833,24.457,2,22.1.4a2.35,2.35,0,0,0-3.223.58L.445,26.605a2.354,2.354,0,0,0,.529,3.286A199.63,199.63,0,0,0,18.136,40.853a94.678,94.678,0,0,0,22.256,8.956,55.543,55.543,0,0,0,9.984,1.759c2.887.181,5.224-.039,6.773-.887a3.737,3.737,0,0,0,.943-.721l-.366-.342-.366-.342a2.805,2.805,0,0,1-.7.528c-1.216.685-3.428.951-6.222.763-8.4-.54-21.994-4.935-31.806-10.582A198.852,198.852,0,0,1,1.562,29.079a1.334,1.334,0,0,1-.389-.438,1.354,1.354,0,0,1,.087-1.45L19.688,1.567a1.346,1.346,0,0,1,1.846-.335c2.3,1.549,7.324,5.345,15.418,13.462A108.063,108.063,0,0,1,53.478,36.873a45.7,45.7,0,0,1,3.708,8.173,10.736,10.736,0,0,1,.54,2.786,2.034,2.034,0,0,1-.365,1.444Z" transform="translate(13.394 8.672)" fill="#070805"/>
      <path id="Path_3178" data-name="Path 3178" d="M57.225,49.116c3.1-3.328-8.739-23.565-20.419-35.277C28.693,5.7,23.643,1.887,21.313.316a1.848,1.848,0,0,0-2.535.458L.35,26.4a1.855,1.855,0,0,0,.416,2.586A199.29,199.29,0,0,0,17.884,39.917c13.96,8.025,35.328,13.5,39.341,9.2" transform="translate(13.896 9.174)" fill="#fff"/>
      <path id="Path_3179" data-name="Path 3179" d="M57.726,49.617l.366.342a2.976,2.976,0,0,0,.635-2.15,15.5,15.5,0,0,0-1.232-4.9,55.415,55.415,0,0,0-3.142-6.52,108.982,108.982,0,0,0-16.693-22.4C29.532,5.833,24.457,2,22.1.4a2.35,2.35,0,0,0-3.223.58L.445,26.605a2.354,2.354,0,0,0,.529,3.286A199.63,199.63,0,0,0,18.136,40.853a94.678,94.678,0,0,0,22.256,8.956,55.543,55.543,0,0,0,9.984,1.759c2.887.181,5.224-.039,6.773-.887a3.737,3.737,0,0,0,.943-.721l-.366-.342-.366-.342a2.805,2.805,0,0,1-.7.528c-1.216.685-3.428.951-6.222.763-8.4-.54-21.994-4.935-31.806-10.582A198.852,198.852,0,0,1,1.562,29.079a1.334,1.334,0,0,1-.389-.438,1.354,1.354,0,0,1,.087-1.45L19.688,1.567a1.346,1.346,0,0,1,1.846-.335c2.3,1.549,7.324,5.345,15.418,13.462A108.063,108.063,0,0,1,53.478,36.873a45.7,45.7,0,0,1,3.708,8.173,10.736,10.736,0,0,1,.54,2.786,2.034,2.034,0,0,1-.365,1.444Z" transform="translate(13.394 8.672)" fill="#070805"/>
      <path id="Path_3180" data-name="Path 3180" d="M4.035,7.173C.841,11.138.946,13.608,0,18.126c10.182,3.313,19.734,4.543,22.275,1.818C24.218,17.86,20.261,9.1,14.165,0c-.91.428-7.118,3.434-10.13,7.173" transform="translate(48.864 38.336)" fill="#e23b34"/>
      <path id="Path_3181" data-name="Path 3181" d="M4.536,7.676l-.391-.314A15.017,15.017,0,0,0,1.195,12.8C.689,14.537.48,16.289.011,18.525a.5.5,0,0,0,.336.58A72.392,72.392,0,0,0,13.39,22.184a27.845,27.845,0,0,0,5.134.22,8.935,8.935,0,0,0,3.684-.9,3.738,3.738,0,0,0,.937-.716,2.956,2.956,0,0,0,.631-2.138,15.375,15.375,0,0,0-1.224-4.868,55,55,0,0,0-3.119-6.474c-1.254-2.261-2.727-4.661-4.35-7.085a.5.5,0,0,0-.63-.174c-.308.146-1.2.574-2.366,1.22C9.728,2.58,6.248,4.76,4.146,7.361l.391.314.391.314c1.928-2.4,5.339-4.57,7.646-5.844,1.142-.632,2.014-1.051,2.307-1.19L14.666.5l-.417.278c1.61,2.4,3.068,4.781,4.306,7.014a45.373,45.373,0,0,1,3.68,8.113,10.66,10.66,0,0,1,.536,2.765A2.016,2.016,0,0,1,22.41,20.1a2.749,2.749,0,0,1-.69.523,8,8,0,0,1-3.264.775c-4.208.284-10.865-.99-17.8-3.251L.5,18.628l.491.1c.476-2.282.689-4.023,1.165-5.646a13.994,13.994,0,0,1,2.77-5.1Z" transform="translate(48.362 37.835)" fill="#070805"/>
      <path id="Path_3182" data-name="Path 3182" d="M1.617.567c1.707-.946,3.6-.8,4.668,1.13s.908,4.9-.8,5.851A3.387,3.387,0,0,1,.459,5.771c-.85-2.034-.551-4.258,1.158-5.2" transform="translate(41.146 33.019)" fill="#0088ca"/>
      <path id="Path_3183" data-name="Path 3183" d="M2.118,1.069l.243.439A3.354,3.354,0,0,1,4.6,1.048,2.555,2.555,0,0,1,6.348,2.443a5.244,5.244,0,0,1,.581,3A2.709,2.709,0,0,1,5.745,7.611,3.265,3.265,0,0,1,3.517,8,2.788,2.788,0,0,1,1.635,6.518a4.418,4.418,0,0,1-.211-.438,4.8,4.8,0,0,1-.351-2.72A2.6,2.6,0,0,1,2.36,1.508l-.243-.439L1.874.631A3.609,3.609,0,0,0,.088,3.167a5.79,5.79,0,0,0,.41,3.3A5.512,5.512,0,0,0,.757,7,3.8,3.8,0,0,0,3.311,8.981a4.267,4.267,0,0,0,2.92-.492,3.691,3.691,0,0,0,1.7-2.942,6.231,6.231,0,0,0-.7-3.591A3.566,3.566,0,0,0,4.788.063,4.338,4.338,0,0,0,1.874.631Z" transform="translate(40.643 32.517)" fill="#070805"/>
      <path id="Path_3184" data-name="Path 3184" d="M3.116,0A3.678,3.678,0,0,0,1.358.5,2.6,2.6,0,0,0,.069,2.357a4.8,4.8,0,0,0,.351,2.72,4.174,4.174,0,0,0,.211.438A2.788,2.788,0,0,0,2.514,7a2.791,2.791,0,0,0,.574.059,3.438,3.438,0,0,0,1.652-.447A2.61,2.61,0,0,0,5.9,4.625a1.435,1.435,0,0,1-.454.4A2.381,2.381,0,0,1,4.3,5.332,2.056,2.056,0,0,1,2.381,3.926C1.859,2.68,2.037,1.32,3.075.744A2.492,2.492,0,0,1,4.274.4c.062,0,.125,0,.186.009A2.286,2.286,0,0,0,3.592.045,2.464,2.464,0,0,0,3.116,0" transform="translate(41.647 33.522)" fill="#0075b1"/>
      <path id="Path_3185" data-name="Path 3185" d="M5.418,7.586l-.03.016.03-.016M5.5,7.538l-.018.01.018-.01m.02-.012-.015.009.015-.009m.06-.036-.057.035.057-.035m.02-.013-.018.013L5.6,7.478m.057-.037L5.6,7.478l.057-.037m.018-.013-.017.013.017-.013M5.715,7.4l-.036.025L5.715,7.4m.016-.012L5.718,7.4l.013-.009m.017-.013-.012.008.012-.008m.017-.014-.012.009.012-.009m.019-.014,0,0,0,0m.014-.01h0M0,3.6A5.679,5.679,0,0,0,.46,5.772,3.341,3.341,0,0,0,3.591,8.058a3.909,3.909,0,0,0,1.746-.431,3.908,3.908,0,0,1-1.745.431A3.341,3.341,0,0,1,.46,5.772,5.684,5.684,0,0,1,0,3.6M6.233,1.6l.007.013L6.233,1.6M1.724.508l-.03.016.03-.016M3.6,0A4.118,4.118,0,0,0,1.744.5,4.118,4.118,0,0,1,3.6,0m.015,0h0" transform="translate(41.144 33.02)" fill="#070805"/>
      <path id="Path_3186" data-name="Path 3186" d="M3.617,0H3.6A4.118,4.118,0,0,0,1.744.5l-.02.009-.03.016L1.616.567C1.543.608,1.472.651,1.4.7A3.346,3.346,0,0,0,0,3.6,5.684,5.684,0,0,0,.46,5.772,3.341,3.341,0,0,0,3.592,8.058a3.908,3.908,0,0,0,1.745-.431L5.388,7.6l.03-.016.068-.037.018-.01,0,0,.015-.009h0l.057-.035h0L5.6,7.478l.057-.037h0l.017-.013L5.715,7.4l0,0,.013-.009.006,0,.012-.008.006,0,.012-.009.014-.01,0,0L5.8,7.342h0c1.085-.861,1.369-2.67.99-4.281A2.81,2.81,0,0,1,6.4,5.127,2.614,2.614,0,0,1,5.243,7.11a3.446,3.446,0,0,1-1.653.447A2.78,2.78,0,0,1,3.017,7.5,2.787,2.787,0,0,1,1.133,6.016a4.413,4.413,0,0,1-.211-.438,4.8,4.8,0,0,1-.351-2.72A2.6,2.6,0,0,1,1.859,1.005,3.682,3.682,0,0,1,3.618.5a2.485,2.485,0,0,1,.477.045,2.3,2.3,0,0,1,.868.369,1.82,1.82,0,0,1,1.383.919L6.286,1.7c-.015-.027-.03-.053-.046-.08L6.233,1.6A2.954,2.954,0,0,0,3.641,0Z" transform="translate(41.144 33.02)" fill="#070805"/>
      <path id="Path_3187" data-name="Path 3187" d="M.172.214c1.2-1.522,11.99,5.51,13.939,7.054,2.425,1.922,3.34,5.173,2.337,6.371s-3.989,1.076-6.836-1.3C7.7,10.747-1.351,2.153.172.214" transform="translate(20.208 18.827)" fill="#e23b34"/>
      <path id="Path_3188" data-name="Path 3188" d="M.673.717l.394.31L1.024.992l.036.043.008-.008L1.024.992l.036.043h0v0h0v0a1.258,1.258,0,0,1,.668.023A14.009,14.009,0,0,1,4.693,2.233,75.059,75.059,0,0,1,14.3,8.164a7.232,7.232,0,0,1,1.808,2.141,5.791,5.791,0,0,1,.722,2.153,1.862,1.862,0,0,1-.267,1.362,1.246,1.246,0,0,1-.362.291,3.434,3.434,0,0,1-2.37.137,8.407,8.407,0,0,1-3.4-1.791c-.714-.6-2.522-2.258-4.358-4.164A32.378,32.378,0,0,1,1.5,2.654a4.194,4.194,0,0,1-.468-1.139c-.057-.3-.009-.43.038-.488L.673.717l-.4-.31a1.565,1.565,0,0,0-.233,1.3A5.125,5.125,0,0,0,.62,3.14,33.052,33.052,0,0,0,5.355,8.989c1.866,1.935,3.674,3.6,4.438,4.238a9.4,9.4,0,0,0,3.813,2,4.4,4.4,0,0,0,3.084-.238,2.241,2.241,0,0,0,.645-.525,2.817,2.817,0,0,0,.5-2.105,6.743,6.743,0,0,0-.843-2.539,8.191,8.191,0,0,0-2.062-2.441A74.747,74.747,0,0,0,7.907,2.83,39.71,39.71,0,0,0,3.63.64a9.847,9.847,0,0,0-1.7-.563A2,2,0,0,0,.573.159.969.969,0,0,0,.278.408Z" transform="translate(19.709 18.325)" fill="#070805"/>
      <path id="Path_3189" data-name="Path 3189" d="M.252,0A.559.559,0,0,0,.061.025C.014.087-.03.22.026.508A4.179,4.179,0,0,0,.494,1.648a32.334,32.334,0,0,0,4.58,5.64c1.837,1.907,3.644,3.569,4.358,4.164a8.393,8.393,0,0,0,3.4,1.791,4.81,4.81,0,0,0,1.107.136,2.606,2.606,0,0,0,1.263-.274,1.263,1.263,0,0,0,.362-.29,1.289,1.289,0,0,0,.258-.653Z" transform="translate(20.711 19.328)" fill="#df2726"/>
      <path id="Path_3190" data-name="Path 3190" d="M.172,0h0C-.374.694.438,2.244,1.794,4.02.438,2.244-.374.694.172,0" transform="translate(20.207 19.041)" fill="#070805"/>
      <path id="Path_3191" data-name="Path 3191" d="M0,0H0C.046.06.092.121.14.181.092.121.046.06,0,0" transform="translate(22.003 23.062)" fill="#070805"/>
      <path id="Path_3192" data-name="Path 3192" d="M4.8,2.044h0Zm2-.706a2.59,2.59,0,0,1-1.965.706A2.59,2.59,0,0,0,6.8,1.338m.021-.023-.012.013.012-.013M.181.148.22.179.181.148M0,0C.024.021.051.042.074.062.051.042.024.021,0,0" transform="translate(29.822 31.166)" fill="#070805"/>
      <path id="Path_3193" data-name="Path 3193" d="M.3,0,.171.07C-.374.765.44,2.314,1.794,4.089c.046.061.094.121.141.183A66.187,66.187,0,0,0,9.613,12.2l.076.062.105.086.04.031a7.781,7.781,0,0,0,4.578,1.865h.037a2.591,2.591,0,0,0,1.967-.706l.009-.01.012-.014.013-.014a1.694,1.694,0,0,0,.3-.638l-.43-.336a1.294,1.294,0,0,1-.258.652,1.277,1.277,0,0,1-.362.291,2.619,2.619,0,0,1-1.263.274,4.883,4.883,0,0,1-1.108-.136,8.4,8.4,0,0,1-3.4-1.791c-.715-.6-2.522-2.259-4.36-4.165A32.309,32.309,0,0,1,1,2.007,4.156,4.156,0,0,1,.527.867C.472.578.516.445.562.385A.553.553,0,0,1,.754.358Z" transform="translate(20.208 18.971)" fill="#070805"/>
      <path id="Path_3194" data-name="Path 3194" d="M6.9,0,6.6.372.256,9.186a1.351,1.351,0,0,0,.3,1.888c2.009,1.455,6.028,4.257,11.746,7.749,1.838,1.063,3.811,2.2,5.88,3.387a83.146,83.146,0,0,0,7.606,3.83c2.718,1.176,5.522,2.238,8.285,3.15.4-2,.616-3.625,1.084-5.227a13.708,13.708,0,0,1,1.24-2.957c-3.591-2.106-7.141-4.336-10.33-6.594C17.223,8.146,10.872,3.373,8.059,1.231A4.452,4.452,0,0,1,6.9,0" transform="translate(14.397 26.677)" fill="#d9dcdf"/>
      <path id="Path_3195" data-name="Path 3195" d="M2.37,0,.352,2.455A1.854,1.854,0,0,0,.765,5.042c.416.3.941.654,1.566,1.057C1.8,5.729,1.345,5.4.962,5.123A1.856,1.856,0,0,1,.546,2.536Z" transform="translate(13.701 33.035)" fill="#070805"/>
      <path id="Path_3196" data-name="Path 3196" d="M26.294,25.667c2.678,1.189,5.479,2.29,8.266,3.246.006-.032.013-.065.018-.1-2.763-.911-5.567-1.972-8.285-3.149M7.1,0,2.176,5.984.351,8.52a1.854,1.854,0,0,0,.415,2.587q.577.418,1.37.978C4.482,13.6,8.229,15.8,12.807,18.45,7.089,14.959,3.07,12.155,1.061,10.7a1.351,1.351,0,0,1-.3-1.888L7.1,0" transform="translate(13.892 27.048)" fill="#070805"/>
      <path id="Path_3197" data-name="Path 3197" d="M2.22,0A12.754,12.754,0,0,0,1.076,2.733C.63,4.249.416,5.869,0,7.937c6.139,1.969,12.024,3.152,16.141,3.152.431,0,.844-.013,1.234-.039a8.013,8.013,0,0,0,3.264-.774,3.161,3.161,0,0,0,.469-.317C16.336,7.639,9.246,4.073,2.22,0" transform="translate(49.444 48.187)" fill="#df2726"/>
      <path id="Path_3198" data-name="Path 3198" d="M2.324,0A13.793,13.793,0,0,0,1.083,2.957C.615,4.561.4,6.181,0,8.184l.48.157c.66-3.283.812-5.484,2.277-8.088L2.324,0" transform="translate(48.472 47.681)" fill="#070805"/>
      <path id="Path_3199" data-name="Path 3199" d="M.172,0C.118.053.06.1,0,.154.073.111.143.066.213.02L.172,0" transform="translate(70.868 58.383)" fill="#070805"/>
      <path id="Path_3200" data-name="Path 3200" d="M.02,0C.013.032.007.065,0,.1c.159.055.32.11.48.163C.486.225.493.191.5.157L.02,0" transform="translate(48.454 55.865)" fill="#070805"/>
      <path id="Path_3201" data-name="Path 3201" d="M2.3,0C.832,2.6.681,4.806.021,8.088L0,8.19c6.214,2.095,12.317,3.452,16.771,3.452A10.351,10.351,0,0,0,21.934,10.6c.06-.05.118-.1.172-.154l-.488-.236a3.16,3.16,0,0,1-.469.317,8.008,8.008,0,0,1-3.264.774c-.391.027-.8.039-1.233.039-4.118,0-10-1.183-16.142-3.152.416-2.068.631-3.688,1.076-5.2A12.813,12.813,0,0,1,2.73.252L2.3,0" transform="translate(48.935 47.933)" fill="#070805"/>
    </g>
  </g>
</svg>
