<svg xmlns="http://www.w3.org/2000/svg" xmlns:xlink="http://www.w3.org/1999/xlink" width="95.795" height="149.434" viewBox="0 0 95.795 149.434">
  <defs>
    <clipPath id="clip-path">
      <path id="Path_9674" data-name="Path 9674" d="M0,0H95.795V-149.434H0Z" fill="none"/>
    </clipPath>
    <clipPath id="clip-path-2">
      <rect id="Rectangle_6740" data-name="Rectangle 6740" width="65.632" height="64.892" transform="translate(46.276 -99.993)" fill="none"/>
    </clipPath>
    <clipPath id="clip-path-3">
      <rect id="Rectangle_6741" data-name="Rectangle 6741" width="30.667" height="36.751" transform="translate(31.23 -108.664)" fill="none"/>
    </clipPath>
    <clipPath id="clip-path-4">
      <rect id="Rectangle_6742" data-name="Rectangle 6742" width="41.396" height="56.274" transform="translate(27.737 -85.243)" fill="none"/>
    </clipPath>
    <clipPath id="clip-path-5">
      <rect id="Rectangle_6743" data-name="Rectangle 6743" width="49.746" height="107.495" transform="translate(35.722 -155.626)" fill="none"/>
    </clipPath>
  </defs>
  <g id="Group_5804" data-name="Group 5804" transform="translate(0 149.434)">
    <g id="Group_5803" data-name="Group 5803" clip-path="url(#clip-path)">
      <g id="Group_5771" data-name="Group 5771" transform="translate(94.835 -59.705)">
        <path id="Path_9654" data-name="Path 9654" d="M0,0A3.111,3.111,0,0,1-3.364,3.923C-13.071,2.8-34.249,1.348-46.828,2.208-61.955,3.244-87.2,10.479-93.979,13.4c0,0-1.882-43.879,44.375-45.784C-13.229-33.882-2.8-10.192,0,0" fill="#ff4c49"/>
      </g>
      <g id="Group_5772" data-name="Group 5772" transform="translate(94.835 -59.705)">
        <path id="Path_9655" data-name="Path 9655" d="M0,0A3.111,3.111,0,0,1-3.364,3.923C-13.071,2.8-34.249,1.348-46.828,2.208-61.955,3.244-87.2,10.479-93.979,13.4c0,0-1.882-43.879,44.375-45.784C-13.229-33.882-2.8-10.192,0,0Z" fill="none" stroke="#2b2e34" stroke-linecap="round" stroke-linejoin="round" stroke-width="1.69"/>
      </g>
      <g id="Group_5776" data-name="Group 5776" style="mix-blend-mode: multiply;isolation: isolate">
        <g id="Group_5775" data-name="Group 5775">
          <g id="Group_5774" data-name="Group 5774" clip-path="url(#clip-path-2)">
            <g id="Group_5773" data-name="Group 5773" transform="translate(94.835 -59.705)">
              <path id="Path_9656" data-name="Path 9656" d="M0,0C-2.289-8.342-9.716-25.707-32.273-30.922V2.021c10.763.253,22.407,1.15,28.909,1.9A3.11,3.11,0,0,0,0,0" fill="#e2e2e3"/>
            </g>
          </g>
        </g>
      </g>
      <g id="Group_5777" data-name="Group 5777" transform="translate(63.936 -47.9)">
        <path id="Path_9657" data-name="Path 9657" d="M0,0,6.179,21.045-.627,16.182l-1.5,15.152L-9.417,25.28s-2.617,14.679-5.5,20.693l-12.227-24.6-4.983,7.1L-35.082,9.122l-6.424,3.524L-37.49.863Z" fill="#ffdc5e"/>
      </g>
      <g id="Group_5778" data-name="Group 5778" transform="translate(63.936 -47.9)">
        <path id="Path_9658" data-name="Path 9658" d="M0,0,6.179,21.045-.627,16.182l-1.5,15.152L-9.417,25.28s-2.617,14.679-5.5,20.693l-12.227-24.6-4.983,7.1L-35.082,9.122l-6.424,3.524L-37.49.863Z" fill="none" stroke="#2b2e34" stroke-width="1.69"/>
      </g>
      <g id="Group_5779" data-name="Group 5779" transform="translate(55.216 -47.605)">
        <path id="Path_9659" data-name="Path 9659" d="M0,0,3.3,12.094-.863,9.678-3.525,20.536S-6.717,16.589-6.908,17.8-8.238,28.58-8.238,28.58l-4.827-10.8-3.29.871-.619-7.715-3.8,1.3L-17.8-.1Z" fill="#2fa3da"/>
      </g>
      <g id="Group_5780" data-name="Group 5780" transform="translate(55.216 -47.605)">
        <path id="Path_9660" data-name="Path 9660" d="M0,0,3.3,12.094-.863,9.678-3.525,20.536S-6.717,16.589-6.908,17.8-8.238,28.58-8.238,28.58l-4.827-10.8-3.29.871-.619-7.715-3.8,1.3L-17.8-.1Z" fill="none" stroke="#2b2e34" stroke-linecap="round" stroke-linejoin="round" stroke-width="1.69"/>
      </g>
      <g id="Group_5781" data-name="Group 5781" transform="translate(44.532 -148.565)">
        <path id="Path_9661" data-name="Path 9661" d="M0,0C-7.639-.669-22.224,36.049-25.659,63.711c-2.386,19.211-2.213,29.877-1.885,34.6a3.114,3.114,0,0,0,3.238,2.891l53.141-2.112a3.126,3.126,0,0,0,3-3.236A335.735,335.735,0,0,0,28.6,61.782C24.772,34.921,9.878.865,0,0" fill="#fff"/>
      </g>
      <g id="Group_5782" data-name="Group 5782" transform="translate(44.532 -148.565)">
        <path id="Path_9662" data-name="Path 9662" d="M0,0C-7.639-.669-22.224,36.049-25.659,63.711c-2.386,19.211-2.213,29.877-1.885,34.6a3.114,3.114,0,0,0,3.238,2.891l53.141-2.112a3.126,3.126,0,0,0,3-3.236A335.735,335.735,0,0,0,28.6,61.782C24.772,34.921,9.878.865,0,0Z" fill="none" stroke="#2b2e34" stroke-width="1.69"/>
      </g>
      <g id="Group_5783" data-name="Group 5783" transform="translate(44.532 -148.565)">
        <path id="Path_9663" data-name="Path 9663" d="M0,0C-7.639-.669-22.224,36.049-25.659,63.711c-2.386,19.211-2.213,29.877-1.885,34.6a3.114,3.114,0,0,0,3.238,2.891l53.141-2.112a3.126,3.126,0,0,0,3-3.236A335.735,335.735,0,0,0,28.6,61.782C24.772,34.921,9.878.865,0,0" fill="#fff"/>
      </g>
      <g id="Group_5784" data-name="Group 5784" transform="translate(44.532 -148.565)">
        <path id="Path_9664" data-name="Path 9664" d="M0,0C-7.639-.669-22.224,36.049-25.659,63.711c-2.386,19.211-2.213,29.877-1.885,34.6a3.114,3.114,0,0,0,3.238,2.891l53.141-2.112a3.126,3.126,0,0,0,3-3.236A335.735,335.735,0,0,0,28.6,61.782C24.772,34.921,9.878.865,0,0Z" fill="none" stroke="#2b2e34" stroke-width="1.69"/>
      </g>
      <g id="Group_5785" data-name="Group 5785" transform="translate(46.467 -111.111)">
        <path id="Path_9665" data-name="Path 9665" d="M0,0C8.577.128,11.749-2.575,18.729-6.005c-6.163-16.958-14.44-30.917-20.7-31.464-4.782-.418-12.3,13.922-18.068,31.46C-18.521-5.244-8.09-.121,0,0" fill="#ff4c49"/>
      </g>
      <g id="Group_5786" data-name="Group 5786" transform="translate(46.467 -111.111)">
        <path id="Path_9666" data-name="Path 9666" d="M0,0C8.577.128,11.749-2.575,18.729-6.005c-6.163-16.958-14.44-30.917-20.7-31.464-4.782-.418-12.3,13.922-18.068,31.46C-18.521-5.244-8.09-.121,0,0Z" fill="none" stroke="#2b2e34" stroke-linecap="round" stroke-linejoin="round" stroke-width="1.69"/>
      </g>
      <g id="Group_5787" data-name="Group 5787" transform="translate(41.151 -85.28)">
        <path id="Path_9667" data-name="Path 9667" d="M0,0C-3.029-1.286-4.794-3.953-3.342-7.372s5.569-6.295,8.6-5.009S10.32-7.8,8.111-3.863C6.293-.624,3.029,1.286,0,0" fill="#2fa3da"/>
      </g>
      <g id="Group_5788" data-name="Group 5788" transform="translate(41.151 -85.28)">
        <path id="Path_9668" data-name="Path 9668" d="M0,0C-3.029-1.286-4.794-3.953-3.342-7.372s5.569-6.295,8.6-5.009S10.32-7.8,8.111-3.863C6.293-.624,3.029,1.286,0,0Z" fill="none" stroke="#2b2e34" stroke-width="1.69"/>
      </g>
      <g id="Group_5792" data-name="Group 5792" style="mix-blend-mode: multiply;isolation: isolate">
        <g id="Group_5791" data-name="Group 5791">
          <g id="Group_5790" data-name="Group 5790" clip-path="url(#clip-path-3)">
            <g id="Group_5789" data-name="Group 5789" transform="translate(46.406 -97.661)">
              <path id="Path_9669" data-name="Path 9669" d="M0,0C-2.377-1.009-5.408.558-7.311,2.927-6.146,1.682-4.487.92-3.166,1.481A3.488,3.488,0,0,1-1.444,6.693c-1.113,1.987-3.1,3.163-4.945,2.382C-8.164,8.322-9.2,6.775-8.48,4.788c-.035.075-.086.145-.118.221-1.451,3.419.314,6.086,3.343,7.372s6.292-.624,8.111-3.863C5.065,4.585,3.029,1.286,0,0" fill="#e2e2e3"/>
            </g>
          </g>
        </g>
      </g>
      <g id="Group_5793" data-name="Group 5793" transform="translate(45.056 -40.474)">
        <path id="Path_9670" data-name="Path 9670" d="M0,0C-3.262-.009-5.123-21.638-5.095-25.828c.036-5.213,3.4-9.8,6.035-9.714S6.507-31.36,6.306-25.116C6.172-20.927,4.154.011,0,0" fill="#ff4c49"/>
      </g>
      <g id="Group_5794" data-name="Group 5794" transform="translate(45.056 -40.474)">
        <path id="Path_9671" data-name="Path 9671" d="M0,0C-3.262-.009-5.123-21.638-5.095-25.828c.036-5.213,3.4-9.8,6.035-9.714S6.507-31.36,6.306-25.116C6.172-20.927,4.154.011,0,0Z" fill="none" stroke="#2b2e34" stroke-linecap="round" stroke-linejoin="round" stroke-width="1.69"/>
      </g>
      <g id="Group_5798" data-name="Group 5798" style="mix-blend-mode: multiply;isolation: isolate">
        <g id="Group_5797" data-name="Group 5797">
          <g id="Group_5796" data-name="Group 5796" clip-path="url(#clip-path-4)">
            <g id="Group_5795" data-name="Group 5795" transform="translate(51.362 -65.59)">
              <path id="Path_9672" data-name="Path 9672" d="M0,0C.2-6.244-2.735-10.337-5.366-10.425a2.79,2.79,0,0,0-1.161.259V25.025c.074.023.145.091.221.091C-2.153,25.128-.135,4.189,0,0" fill="#e2e2e3"/>
            </g>
          </g>
        </g>
      </g>
      <g id="Group_5802" data-name="Group 5802" style="mix-blend-mode: multiply;isolation: isolate">
        <g id="Group_5801" data-name="Group 5801">
          <g id="Group_5800" data-name="Group 5800" clip-path="url(#clip-path-5)">
            <g id="Group_5799" data-name="Group 5799" transform="translate(72.026 -87.636)">
              <path id="Path_9673" data-name="Path 9673" d="M0,0C-3.417-23.984-16.285-57.4-27.3-60.99c2.881,13.376,7.8,38.176,8.768,58.61.861,18.248,1.111,31.632,1.184,37.59a7.51,7.51,0,0,1-.433,2.814l19.219.481A3.125,3.125,0,0,0,4.439,35.27C4.24,29.87,2.358,16.54,0,0" fill="#e2e2e3"/>
            </g>
          </g>
        </g>
      </g>
    </g>
  </g>
</svg>
